<?xml version="1.0" encoding="utf-8" ?>
<svg xmlns="http://www.w3.org/2000/svg" xmlns:xlink="http://www.w3.org/1999/xlink" width="50" height="42">
	<path fill="none" stroke="rgb(0,111,160)" stroke-width="2" stroke-miterlimit="4" transform="matrix(0.991 0 0 0.991 0.466003 13.0364)" d="M17.7941 20.3029C17.6856 19.1397 17.7272 18.3279 17.7272 17.2651C18.27 16.9887 19.2425 15.2266 19.4068 13.738C19.8336 13.7041 20.5064 13.3 20.7035 11.7046C20.8098 10.8481 20.3875 10.3661 20.1302 10.2146C20.8246 8.18768 22.267 1.91722 17.4625 1.26925C16.9681 0.426449 15.7019 0 14.0566 0C7.47364 0.117616 6.67959 4.82443 8.12272 10.2146C7.86621 10.3661 7.4439 10.8481 7.54948 11.7046C7.74725 13.3 8.41937 13.7041 8.84614 13.738C9.00971 15.2259 10.0209 16.9887 10.5651 17.2651C10.5651 18.3279 10.606 19.1397 10.4975 20.3029C9.19484 23.7015 0.40595 22.7476 0 29.3023L28.2529 29.3023C27.8477 22.7476 19.0968 23.7015 17.7941 20.3029Z"/>
	<path fill="rgb(0,111,160)" stroke="none" transform="matrix(-0.991 0 0 0.991 48.9996 0.459503)" d="M12.308 0C15.5921 0 18.6884 0.933978 21.0269 2.62984C23.4327 4.37467 24.7576 6.71407 24.7576 9.2173C24.7576 11.4717 23.6659 13.6177 21.6743 15.2976L21.6405 20.6059C21.6387 20.8891 21.4766 21.1447 21.2235 21.2963C20.9792 21.4428 20.7251 21.4831 20.3824 21.3182L14.344 18.3117C13.6718 18.3932 12.9882 18.4346 12.308 18.4346C9.02393 18.4346 5.92751 17.5007 3.58905 15.8048C2.36011 14.9136 1.41397 13.8668 0.781693 12.7226C-0.468273 10.3397 -0.340329 6.45633 2.05431 3.97277C3.58905 2.38104 3.58905 2.38104 6.68325 0.98691C8.40556 0.342075 10.3223 0 12.308 0ZM19.9613 14.8867C19.9725 14.659 20.0847 14.4461 20.2704 14.3005C22.0573 12.8995 23.0415 11.0942 23.0415 9.21729C23.0415 5.02882 18.151 1.62121 12.3078 1.62121C6.46471 1.62121 1.57416 4.94687 1.57416 9.21729C1.57416 9.95924 1.72603 10.6765 2.00755 11.3549C2.01415 11.37 2.02119 11.3848 2.02668 11.4001C3.35507 14.528 7.46105 16.8135 12.3078 16.8135C13.0064 16.8135 13.7082 16.7647 14.3939 16.6686C14.6327 16.6352 14.8625 16.6977 15.0403 16.8259L19.9328 19.2618L19.9603 14.9308C19.9603 14.9162 19.9604 14.9015 19.9613 14.8867Z" fill-rule="evenodd"/>
	<path fill="none" stroke="rgb(0,111,160)" stroke-width="0.15000001" stroke-miterlimit="4" transform="matrix(-0.991 0 0 0.991 48.9996 0.459503)" d="M12.308 0C15.5921 0 18.6884 0.933978 21.0269 2.62984C23.4327 4.37467 24.7576 6.71407 24.7576 9.2173C24.7576 11.4717 23.6659 13.6177 21.6743 15.2976L21.6405 20.6059C21.6387 20.8891 21.4766 21.1447 21.2235 21.2963C20.9792 21.4428 20.7251 21.4831 20.3824 21.3182L14.344 18.3117C13.6718 18.3932 12.9882 18.4346 12.308 18.4346C9.02393 18.4346 5.92751 17.5007 3.58905 15.8048C2.36011 14.9136 1.41397 13.8668 0.781693 12.7226C-0.468273 10.3397 -0.340329 6.45633 2.05431 3.97277C3.58905 2.38104 3.58905 2.38104 6.68325 0.98691C8.40556 0.342075 10.3223 0 12.308 0ZM19.9613 14.8867C19.9725 14.659 20.0847 14.4461 20.2704 14.3005C22.0573 12.8995 23.0415 11.0942 23.0415 9.21729C23.0415 5.02882 18.151 1.62121 12.3078 1.62121C6.46471 1.62121 1.57416 4.94687 1.57416 9.21729C1.57416 9.95924 1.72603 10.6765 2.00755 11.3549C2.01415 11.37 2.02119 11.3848 2.02668 11.4001C3.35507 14.528 7.46105 16.8135 12.3078 16.8135C13.0064 16.8135 13.7082 16.7647 14.3939 16.6686C14.6327 16.6352 14.8625 16.6977 15.0403 16.8259L19.9328 19.2618L19.9603 14.9308C19.9603 14.9162 19.9604 14.9015 19.9613 14.8867Z" fill-rule="evenodd"/>
	<path fill="rgb(0,111,160)" stroke="none" transform="matrix(-0.991 0 0 0.991 42.7973 10.5484)" d="M0.840861 1.59173C0.376466 1.59173 0 1.23541 0 0.795866C0 0.356321 0.376466 0 0.840861 0L11.3516 0C11.816 0 12.1925 0.356321 12.1925 0.795866C12.1925 1.23541 11.816 1.59173 11.3516 1.59173L0.840861 1.59173Z"/>
	<path fill="rgb(0,111,160)" stroke="none" transform="matrix(-0.991 0 0 0.991 42.7973 6.64432)" d="M0.840861 1.59173C0.376466 1.59173 0 1.23541 0 0.795866C0 0.356321 0.376466 0 0.840861 0L11.3516 0C11.816 0 12.1925 0.356321 12.1925 0.795866C12.1925 1.23541 11.816 1.59173 11.3516 1.59173L0.840861 1.59173Z"/>
</svg>
