<?xml version="1.0" encoding="utf-8" ?>
<svg xmlns="http://www.w3.org/2000/svg" xmlns:xlink="http://www.w3.org/1999/xlink" width="32" height="37">
	<path fill="rgb(0,111,160)" stroke="none" transform="translate(4.12903 3)" d="M15.8935 0.991031C15.8935 1.53836 16.3549 1.98206 16.924 1.98206L24.7477 1.98206C25.3257 1.98206 25.8099 2.46524 25.8099 3.07916L25.8099 30.9208C25.8099 31.5348 25.3257 32.0179 24.7477 32.0179L3.12322 32.0179C2.54528 32.0179 2.06105 31.5348 2.06105 30.9208L2.06105 19.2476C2.06105 18.7003 1.59967 18.2566 1.03052 18.2566C0.461381 18.2566 0 18.7003 0 19.2476L0 30.9208C0 32.6134 1.38963 34 3.12322 34L24.7477 34C26.4813 34 27.871 32.6134 27.871 30.9208L27.871 3.07916C27.871 1.3866 26.4813 0 24.7477 0L16.924 0C16.3549 0 15.8935 0.4437 15.8935 0.991031ZM1.03052 7.09604C1.59967 7.09604 2.06105 6.65234 2.06105 6.10501L2.06105 3.07916C2.06105 2.46524 2.54528 1.98206 3.12322 1.98206L6.51192 1.98206C7.08106 1.98206 7.54244 1.53836 7.54244 0.991031C7.54244 0.4437 7.08106 0 6.51192 0L3.12322 0C1.38963 0 0 1.3866 0 3.07916L0 6.10501C0 6.65234 0.461381 7.09604 1.03052 7.09604Z" fill-rule="evenodd"/>
	<path fill="rgb(0,111,160)" stroke="none" d="M16.6504 0.485943C16.9529 0.00500456 17.5954 -0.144188 18.0855 0.152712C18.5755 0.449612 18.7276 1.08017 18.425 1.56111L7.45541 19L0.459196 14.3621C-0.0180418 14.0458 -0.143594 13.4096 0.178768 12.9412C0.501129 12.4729 1.14933 12.3497 1.62657 12.666L6.82219 16.1103L16.6504 0.485943Z"/>
	<path fill="rgb(0,111,160)" stroke="none" transform="translate(13.4193 12)" d="M1.05873 2C0.474008 2 0 1.55228 0 1C0 0.447715 0.474008 0 1.05873 0L7.19934 0C7.78406 0 8.25806 0.447715 8.25806 1C8.25806 1.55228 7.78406 2 7.19934 2L1.05873 2Z"/>
	<path fill="rgb(0,111,160)" stroke="none" transform="translate(13.4193 16.25)" d="M1.04228 2C0.466645 2 0 1.55228 0 1C0 0.447715 0.466645 0 1.04228 0L12.3771 0C12.9527 0 13.4194 0.447715 13.4194 1C13.4194 1.55228 12.9527 2 12.3771 2L1.04228 2Z"/>
	<path fill="rgb(0,111,160)" stroke="none" transform="translate(13.4193 20.5)" d="M1.04228 2C0.466645 2 0 1.55228 0 1C0 0.447715 0.466645 0 1.04228 0L12.3771 0C12.9527 0 13.4194 0.447715 13.4194 1C13.4194 1.55228 12.9527 2 12.3771 2L1.04228 2Z"/>
	<path fill="rgb(0,111,160)" stroke="none" transform="translate(13.4193 24.75)" d="M1.04033 2C0.465771 2 0 1.55228 0 1C0 0.447715 0.465771 0 1.04033 0L12.379 0C12.9536 0 13.4194 0.447715 13.4194 1C13.4194 1.55228 12.9536 2 12.379 2L1.04033 2Z"/>
	<path fill="rgb(0,111,160)" stroke="none" transform="translate(18.5807 29)" d="M1.05873 2C0.474008 2 0 1.55228 0 1C0 0.447715 0.474008 0 1.05873 0L7.19934 0C7.78406 0 8.25806 0.447715 8.25806 1C8.25806 1.55228 7.78406 2 7.19934 2L1.05873 2Z"/>
</svg>
